<svg xmlns="http://www.w3.org/2000/svg" version="1.1"
    xmlns:xlink="http://www.w3.org/1999/xlink"
    xmlns:svgjs="http://svgjs.dev/svgjs" width="2000" height="1809" viewBox="0 0 2000 1809">
    <g transform="matrix(1,0,0,1,0.07481319109160722,0.7337411073738167)">
        <svg viewBox="0 0 273 247" data-background-color="#ffffff" preserveAspectRatio="xMidYMid meet" height="1809" width="2000"
            xmlns="http://www.w3.org/2000/svg"
            xmlns:xlink="http://www.w3.org/1999/xlink">
            <g id="tight-bounds" transform="matrix(1,0,0,1,-0.010212000584004954,-0.099973655792013)">
                <svg viewBox="0 0 273.02036793053543 247.2" height="247.2" width="273.02036793053543">
                    <g>
                        <svg viewBox="0 0 273.0203679305355 247.20000000000002" height="247.2" width="273.02036793053543">
                            <g>
                                <svg viewBox="0 0 273.0203679305355 247.20000000000002" height="247.20000000000002" width="273.0203679305355">
                                    <g>
                                        <svg viewBox="0 0 273.0203679305355 247.20000000000002" height="247.20000000000002" width="273.0203679305355">
                                            <g>
                                                <svg viewBox="0 0 273.0203679305355 247.20000000000002" height="247.20000000000002" width="273.0203679305355">
                                                    <path d="M272.381 53.02C271.098 27.36 267.44 20.227 267.44 20.227 256.209-6.202 242.193-0.506 229.601 3.292 207.371 3.446 185.23 9.091 163.05 12.119 116.497 12.581 69.545 4.986 23.223 23.717 18.872 29.464-4.514 24.846 0.774 56.304 2.16 69.39 7.217 83.913 7.063 95.922 7.756 98.026 8.719 93.202 9.13 96.23 10.567 104.39 12.916 100.541 14.841 105.365 12.159 118.246 14.084 128.971 15.92 140.21 12.685 143.135 8.539 141.749 6.678 151.449 6.486 158.479 5.446 157.145 4.304 156.837 3.469 156.632 1.788 157.402 2.07 159.608 3.033 167.152-1.1 171.514 1.493 178.904-0.291 186.91 2.725 193.838 2.314 202.511 2.263 204.255 2.545 205.744 2.994 206.154 4.984 208.361 2.083 212.672 2.391 217.342 22.799 249.262 44.94 227.195 65.849 241.872 71.278 231.608 67.196 245.516 69.366 243.36 71.06 240.846 72.292 251.263 74.205 245.362 74.5 243.668 74.051 239.665 75.103 240.435 75.655 240.846 76.143 240.743 76.22 238.382 76.335 234.841 75.321 237.048 75.052 235.201 77.965 225.861 77.247 248.081 79.98 247.158 79.852 244.438 79.056 240.538 80.686 241.051 82.304 237.151 82.355 233.918 83.792 242.693 83.844 244.592 84.101 245.926 84.511 246.85 89.004 237.305 93.47 250.237 98.181 245.926 101.069 241.205 103.841 248.492 106.768 246.696 107.794 245.259 108.834 242.693 109.822 247.004 121.926 247.928 134.826 244.079 146.3 247.158 176.964 241.41 209.732 249.518 242.064 241.923 249.688 238.998 257.608 234.841 265.039 231.506 265.039 231.506 271.059 222.371 271.059 181.316S272.343 145.393 272.535 112.703C272.728 80.013 273.626 78.679 272.343 53.02Z" opacity="1" fill="#0080ff" data-fill-palette-color="tertiary"></path>
                                                    <g transform="matrix(1,0,0,1,55.76832000000002,26.230666666666668)">
                                                        <svg width="161.48372793053545" viewBox="-0.25 -34.54999923706055 28.649999618530273 34.54999923706055" height="194.7386666666667" data-palette-color="#ffffff">
                                                            <path d="M21.65-34.55L28.4-34.55 18.15 0 10.3 0-0.25-34.55 6.85-34.55 14.35-5.85 21.65-34.55Z" opacity="1" transform="matrix(1,0,0,1,0,0)" fill="#ffffff" class="undefined-text-0" data-fill-palette-color="quaternary" id="text-0"></path>
                                                        </svg>
                                                    </g>
                                                </svg>
                                            </g>
                                        </svg>
                                    </g>
                                </svg>
                            </g>
                            <g></g>
                        </svg>
                    </g>
                    <defs></defs>
                </svg>
                <rect width="273.02036793053543" height="247.2" fill="none" stroke="none" visibility="hidden"></rect>
            </g>
        </svg>
    </g>
</svg>